<svg id="Capa_1" enable-background="new 0 0 511.913 511.913" height="512" viewBox="0 0 511.913 511.913" width="512" xmlns="http://www.w3.org/2000/svg"><g><path d="m174.422 132.977-4.316 38.844c-1.501 13.514-3.197 26.205-5.109 38.191-57.456.523-104.04 47.863-104.04 105.988 0 43.036 25.792 81.045 65.014 97.121 15.124 55.782 65.925 98.795 129.436 98.792 62.72-.001 114.535-42.564 130.414-98.749 38.211-15.629 65.136-53.287 65.136-97.165 0-57.934-46.278-105.153-103.474-105.98-2.15-11.127-3.913-22.332-5.158-33.543l-4.438-39.937c-2.931-26.393-17.122-49.726-37.965-63.499.671-4.188 1.034-8.547 1.034-13.041 0-33.645-19.767-60-45-60-25.234 0-45 26.355-45 60 0 4.412.348 8.694.996 12.812-20.746 13.222-34.77 35.318-37.53 60.166zm-53.488 243.073c-18.541-13.857-29.977-35.833-29.977-60.05 0-39.658 30.137-72.3 68.419-75.69-6.468 30.132-14.816 55.491-25.622 78.402-8.546 18.116-12.843 37.514-12.82 57.338zm300.023-60.05c0 24.234-11.445 46.216-30.001 60.069 0-.023.001-.046.001-.069 0-15.846-2.739-31.371-8.141-46.143-10.014-27.383-20.45-57.766-28.488-89.372 37.428 4.234 66.629 36.477 66.629 75.515zm-165-286c6.116 0 15 11.687 15 30 0 12.012-5.624 30-15 30-7.112 0-15-13.371-15-30 0-18.313 8.883-30 15-30zm-51.719 106.29c1.529-13.763 8.506-26.196 19.012-34.714 8.144 11.403 19.694 18.424 32.707 18.424 12.882 0 24.331-6.88 32.461-18.081 10.661 9.2 17.991 22.965 19.653 37.933l4.438 39.937c6.349 57.152 24.861 113.141 42.132 160.371 6.859 18.756 8.085 39.028 3.914 58.356-.049.215-.1.429-.139.647-10.448 46.985-52.171 82.454-102.458 82.738-50.623.285-90.265-35.111-101.319-77.648-6.522-25.096-4.361-50.25 6.249-72.743 25.117-53.249 34.055-111.542 39.036-156.376z"/><path d="m255.957 210c8.284 0 15-6.716 15-15v-30c0-8.284-6.716-15-15-15s-15 6.716-15 15v30c0 8.284 6.715 15 15 15z"/></g></svg>