<svg id="Capa_1" enable-background="new 0 0 512 512" height="512" viewBox="0 0 512 512" width="512" xmlns="http://www.w3.org/2000/svg"><g><path d="m151 383.565v71.005c-17.461 6.191-30 22.873-30 42.43 0 8.284 6.716 15 15 15h90c8.284 0 15-6.716 15-15v-75.685c9.991.912 20.009.912 30 0v75.685c0 8.284 6.716 15 15 15h90c8.284 0 15-6.716 15-15 0-19.556-12.539-36.239-30-42.43v-71.005c37.702-31.345 60-78.475 60-127.565 0-42.058-15.997-82.473-43.789-112.83 25.813-11.865 43.789-37.95 43.789-68.17 0-8.284-6.716-15-15-15h-83.787c-3.647-3.573-5.025-5.235-9.329-8.936 10.989-8.212 18.116-21.321 18.116-36.064 0-8.284-6.716-15-15-15s-15 6.716-15 15c0 8.271-6.729 15-15 15h-60c-8.271 0-15-6.729-15-15 0-8.284-6.716-15-15-15s-15 6.716-15 15c0 14.743 7.127 27.851 18.115 36.064-4.299 3.696-5.647 5.329-9.329 8.936h-83.786c-8.284 0-15 6.716-15 15 0 30.22 17.976 56.305 43.789 68.17-27.792 30.357-43.789 70.772-43.789 112.83 0 49.09 22.298 96.22 60 127.565zm237.43-293.565c-5.234 14.762-17.966 26.006-33.595 29.129l-14.564-29.129zm-180.102-6.115c3.801-2.808 17.846-23.885 47.672-23.885 29.822 0 43.816 21.037 47.672 23.885l24.262 48.524c-17.279 19.907-30.192 44.776-36.776 71.112l-1.902 7.609c-1.077-.077-2.16-.131-3.256-.131 0 0-62.179.053-63.255.131l-1.902-7.609c-6.585-26.336-19.498-51.205-36.776-71.112zm92.672 172.115c0 8.271-6.729 15-15 15h-60c-8.271 0-15-6.729-15-15s6.729-15 15-15h60c8.271 0 15 6.729 15 15zm-177.43-166h48.159l-14.564 29.129c-15.629-3.123-28.361-14.367-33.595-29.129zm40.944 65.775c12.668 15.709 22.172 34.817 27.224 55.023l3.178 12.711c-8.566 8.197-13.916 19.727-13.916 32.491 0 24.813 20.187 45 45 45h60c24.813 0 45-20.187 45-45 0-12.764-5.35-24.294-13.915-32.492l3.178-12.711c5.051-20.206 14.556-39.314 27.224-55.023 27.451 25.478 43.513 62.01 43.513 100.226 0 42.274-20.203 82.78-54.043 108.354-3.751 2.835-5.957 7.265-5.957 11.967v90.679c0 8.284 6.716 15 15 15h-45v-78.023c0-4.501-2.021-8.765-5.507-11.614-3.485-2.849-8.066-3.982-12.478-3.086-17.8 3.614-36.23 3.614-54.03 0-4.412-.896-8.993.237-12.478 3.086-3.486 2.849-5.507 7.113-5.507 11.614v78.023h-45c8.284 0 15-6.716 15-15v-90.679c0-4.702-2.205-9.132-5.957-11.967-33.84-25.574-54.043-66.08-54.043-108.354 0-38.216 16.062-74.748 43.514-100.225z"/></g></svg>