<svg id="Capa_1" enable-background="new 0 0 512 512" height="512" viewBox="0 0 512 512" width="512" xmlns="http://www.w3.org/2000/svg"><g><path d="m256 270c44.903 0 75-29.309 75-60 0-31.009-30.539-60-75-60-44.903 0-75 29.309-75 60 0 31.009 30.539 60 75 60zm0-90c24.393 0 45 13.738 45 30s-20.607 30-45 30-45-13.738-45-30 20.607-30 45-30z"/><path d="m61 285c0 30.959 7.225 61.597 20.894 88.601 10.075 19.904 18.292 41.988 23.76 63.865l15.793 63.173c1.67 6.676 7.67 11.361 14.553 11.361h60c8.284 0 15-6.716 15-15v-50.382c29.693 7.153 60.307 7.153 90 0v50.382c0 8.284 6.716 15 15 15h60c6.883 0 12.883-4.685 14.552-11.362l13.687-54.748c7.553-30.21 20.693-61.154 29.92-81.801 11.175-25.005 16.841-51.614 16.841-79.089 0-36.953-10.128-69.061-30.103-95.532-.53-16.059-3.333-32.655-8.156-49.042 23.364-13.06 38.259-37.803 38.259-65.426v-60c0-8.284-6.716-15-15-15-33.672 0-65.956 12.602-90.663 34.989-25.384-21.26-55.947-34.989-89.337-34.989-33.38 0-63.944 13.721-89.337 34.989-24.707-22.387-56.991-34.989-90.663-34.989-8.284 0-15 6.716-15 15v60c0 27.623 14.895 52.366 38.259 65.426-4.822 16.387-7.626 32.983-8.156 49.042-19.975 26.471-30.103 58.579-30.103 95.532zm360-253.922v43.922c0 14.913-7.235 28.422-18.891 36.689-8.859-19.78-20.594-38.665-35.353-55.605 15.292-13.41 34.147-22.103 54.244-25.006zm-165-1.078c73.976 0 135 90.064 135 165 0 74.106-60.763 105-135 105-74.133 0-135-30.822-135-105 0-73.977 60.426-165 135-165zm-165 45v-43.922c20.097 2.903 38.952 11.596 54.244 25.006-14.757 16.938-26.492 35.822-35.353 55.605-11.656-8.267-18.891-21.776-18.891-36.689zm165 255c81.959 0 138.907-33.552 157.98-90.101 4.658 13.748 7.02 28.81 7.02 45.101 0 23.229-4.788 45.72-14.23 66.849-9.688 21.681-23.509 54.263-31.635 86.765l-10.846 43.386h-33.289v-55.463c0-4.871-2.365-9.438-6.343-12.25s-9.073-3.517-13.664-1.89c-35.988 12.743-73.998 12.743-109.986 0-4.591-1.626-9.687-.921-13.664 1.89s-6.343 7.38-6.343 12.25v55.463h-33.289l-12.953-51.811c-6.003-24.015-15.028-48.268-26.099-70.138-11.552-22.823-17.659-48.776-17.659-75.051 0-16.292 2.361-31.353 7.02-45.101 19.073 56.549 76.021 90.101 157.98 90.101z"/></g></svg>